# xmcd
#
# Track frame offsets: 
#        150
#        13431
#        29611
#        42676
#        56614
#        68007
#        85901
#        100779
#        111332
#        122162
#        131573
#        144818
#        158394
#        170393
#        179405
#        192868
#        206875
#        218217
#        230574
#        241756
#        254096
#        267278
#
# Disc length: 3724 seconds
#
# Revision: 2
# Processed by: cddbd v1.5.2PL0 Copyright (c) Steve Scherf et al.
# Submitted via: ExactAudioCopyFreeDBPlugin 1.0
#
DISCID=450e8a16
DTITLE=Ray Charles - Singular Genius:  The Complete ABC Singles (1959-
DTITLE=1962)
DYEAR=2011
DGENRE=Soul
TTITLE0=Teardrops from My Eyes
TTITLE1=Cry
TTITLE2=I've Got a Woman (Part 1) (live)
TTITLE3=I've Got a Woman (Part 2) (live)
TTITLE4=Without a Song (Part 1)
TTITLE5=Without a Song (Part 2)
TTITLE6=I'm a Fool to Care
TTITLE7=Love's Gonna Live Here
TTITLE8=The Cincinnati Kid
TTITLE9=That's All I Am to You
TTITLE10=Crying Time
TTITLE11=When My Dreamboat Comes Home
TTITLE12=Together Again
TTITLE13=You're Just About to Lose Your Clown
TTITLE14=Let's Go Get Stoned
TTITLE15=The Train
TTITLE16=I Chose to Sing the Blues
TTITLE17=Hopelessly
TTITLE18=I Don't Need No Doctor
TTITLE19=Please Say You're Fooling
TTITLE20=I Want to Talk About You
TTITLE21=Something Inside Me
EXTD=
EXTT0=
EXTT1=
EXTT2=
EXTT3=
EXTT4=
EXTT5=
EXTT6=
EXTT7=
EXTT8=
EXTT9=
EXTT10=
EXTT11=
EXTT12=
EXTT13=
EXTT14=
EXTT15=
EXTT16=
EXTT17=
EXTT18=
EXTT19=
EXTT20=
EXTT21=
PLAYORDER=
